<svg xmlns="http://www.w3.org/2000/svg" width="260" height="160.26393295492403" viewBox="0 0 260 160.26393295492403">
  <g transform="matrix(1.350000023841858,0,0,1.350000023841858,105,-0.2762154579162619)" fill="#ffffff">
    <path d="M14.88 60 c-9.66 0 -14.88 -1.2 -14.88 -12.54 l0 -20.22 c0 -5.4 3.84 -9.24 9.3 -9.24 c6.42 0 17.4 -0.78 20.58 8.04 c0.96 2.7 0.84 5.94 0.18 8.64 c5.46 1.98 7.62 5.82 7.62 13.2 c0 5.16 -2.52 8.7 -7.5 10.56 c-4.62 1.74 -10.32 1.56 -15.3 1.56 z M9.3 22.14 c-2.4 0 -5.16 1.32 -5.16 5.1 l0 20.04 c0 8.04 2.1 8.58 10.74 8.58 c9.9 0 18.66 -0.06 18.66 -7.98 c0 -5.64 -1.2 -7.86 -4.86 -9.3 c-1.74 4.14 -5.22 8.4 -9.84 8.4 c-5.34 0 -8.46 -5.64 -5.7 -9.96 c1.74 -2.58 5.94 -4.98 12.96 -3.54 c0.48 -2.46 0.42 -4.44 -0.12 -6.06 c-2.04 -5.7 -10.08 -5.28 -16.68 -5.28 z M16.62 39.3 c-1.14 1.8 0.66 4.2 3.18 3.42 c1.74 -0.48 3.72 -2.88 4.86 -5.28 c-2.88 -0.48 -6.6 -0.24 -8.04 1.86 z"></path>
  </g>
  <g transform="matrix(0.9208675622940063,0,0,0.9208675622940063,-3.363744767638114,94.15494464210575)" fill="#ffffff">
    <path d="M18.809 25.098 c3.1836 0.87891 5.3125 2.9688 5.3125 6.9922 c0 4.7656 -2.8906 7.9102 -8.8477 7.9102 l-11.621 0 l0 -28.223 l9.1406 0 c6.0938 0 9.2969 2.9297 9.2969 7.7344 c0 2.4805 -1.0742 4.5117 -3.2813 5.5859 z M12.852 16.641 l-3.5547 0 l0 6.6406 l3.8086 0 c2.5 0 3.5938 -1.4844 3.5938 -3.3984 c0 -1.875 -1.2305 -3.2422 -3.8477 -3.2422 z M14.18 34.9805 c3.1641 0 4.2578 -1.6992 4.2578 -3.5352 c0 -1.875 -1.0742 -3.6523 -4.375 -3.6523 l-4.7656 0 l0 7.1875 l4.8828 0 z M43.418406250000004 40.39063 c-6.1914 0 -11.035 -3.1641 -11.035 -10.273 l0 -18.34 l5.8594 0 l0 17.539 c0 4.2969 2.2852 5.8984 5.1758 5.8984 c2.9102 0 5.2148 -1.6211 5.2148 -5.8984 l0 -17.539 l5.8594 0 l0 18.34 c0 7.1094 -4.8633 10.273 -11.074 10.273 z M79.74640625 40 l-7.3438 -12.422 l-1.6992 0 l0 12.422 l-5.8594 0 l0 -28.223 l10.234 0 c6.3867 0 9.082 3.7695 9.082 8.4375 c0 3.7891 -2.1484 6.25 -5.9766 7.0703 l8.4961 12.715 l-6.9336 0 z M70.70310625 16.641 l0 6.7383 l3.457 0 c3.125 0 4.3945 -1.3281 4.3945 -3.3594 c0 -2.0117 -1.2695 -3.3789 -4.3945 -3.3789 l-3.457 0 z M110.97703125 16.934 l-10.469 0 l0 6.4063 l9.2773 0 l0 5.0977 l-9.2773 0 l0 6.3867 l10.469 0 l0 5.1758 l-16.367 0 l0 -28.223 l16.367 0 l0 5.1563 z M139.5311875 40 l-2.0508 -5.8203 l-11.855 0 l-2.0508 5.8203 l-5.9961 0 l10.391 -28.223 l7.168 0 l10.391 28.223 l-5.9961 0 z M127.3441875 29.277 l8.418 0 l-4.1992 -11.973 z M163.84809375 40.39063 c-6.1914 0 -11.035 -3.1641 -11.035 -10.273 l0 -18.34 l5.8594 0 l0 17.539 c0 4.2969 2.2852 5.8984 5.1758 5.8984 c2.9102 0 5.2148 -1.6211 5.2148 -5.8984 l0 -17.539 l5.8594 0 l0 18.34 c0 7.1094 -4.8633 10.273 -11.074 10.273 z M217.61709375 40 l-5.8398 0 l-1.8555 -21.27 l-7.1484 21.27 l-3.7891 0 l-7.1484 -21.27 l-1.875 21.27 l-5.8594 0 l2.3633 -28.223 l8.3594 0 l6.0156 17.715 l6.0938 -17.715 l8.3594 0 z M246.26946875 40 l-2.0508 -5.8203 l-11.855 0 l-2.0508 5.8203 l-5.9961 0 l10.391 -28.223 l7.168 0 l10.391 28.223 l-5.9961 0 z M234.08246875 29.277 l8.418 0 l-4.1992 -11.973 z M257.050785 40 l10.996 -14.727 l-10.684 -13.496 l7.1289 0 l7.0313 9.2578 l7.0313 -9.2578 l7.1289 0 l-10.684 13.496 l10.996 14.727 l-7.4609 0 l-7.0117 -9.9805 l-7.0117 9.9805 l-7.4609 0 z"></path>
  </g>
  <g transform="matrix(0.983583927154541,0,0,0.983583927154541,49.71131793694413,140.40015062704674)" fill="#ffffff">
    <path d="M11.27 20 l-1.0254 -2.9102 l-5.9277 0 l-1.0254 2.9102 l-2.998 0 l5.1953 -14.111 l3.584 0 l5.1953 14.111 l-2.998 0 z M5.1758 14.6387 l4.209 0 l-2.0996 -5.9863 z M26.6064640625 20.19531 c-3.0957 0 -5.5176 -1.582 -5.5176 -5.1367 l0 -9.1699 l2.9297 0 l0 8.7695 c0 2.1484 1.1426 2.9492 2.5879 2.9492 c1.4551 0 2.6074 -0.81055 2.6074 -2.9492 l0 -8.7695 l2.9297 0 l0 9.1699 c0 3.5547 -2.4316 5.1367 -5.5371 5.1367 z M58.2666046875 12.5488 c1.5918 0.43945 2.6563 1.4844 2.6563 3.4961 c0 2.3828 -1.4453 3.9551 -4.4238 3.9551 l-5.8105 0 l0 -14.111 l4.5703 0 c3.0469 0 4.6484 1.4648 4.6484 3.8672 c0 1.2402 -0.53711 2.2559 -1.6406 2.793 z M55.2881046875 8.32 l-1.7773 0 l0 3.3203 l1.9043 0 c1.25 0 1.7969 -0.74219 1.7969 -1.6992 c0 -0.9375 -0.61523 -1.6211 -1.9238 -1.6211 z M55.9521046875 17.4902 c1.582 0 2.1289 -0.84961 2.1289 -1.7676 c0 -0.9375 -0.53711 -1.8262 -2.1875 -1.8262 l-2.3828 0 l0 3.5938 l2.4414 0 z M74.77541875 20.19531 c-4.1504 0 -7.2168 -2.832 -7.2168 -7.2559 c0 -4.4336 3.0664 -7.2461 7.2168 -7.2461 c4.1406 0 7.207 2.8125 7.207 7.2461 c0 4.4238 -3.0664 7.2559 -7.207 7.2559 z M74.77541875 17.5098 c2.4316 0 4.2969 -1.709 4.2969 -4.5703 c0 -2.8516 -1.8652 -4.5508 -4.2969 -4.5508 s-4.2969 1.6992 -4.2969 4.5508 c0 2.8613 1.8652 4.5703 4.2969 4.5703 z M94.8974796875 20.19531 c-3.0957 0 -5.5176 -1.582 -5.5176 -5.1367 l0 -9.1699 l2.9297 0 l0 8.7695 c0 2.1484 1.1426 2.9492 2.5879 2.9492 c1.4551 0 2.6074 -0.81055 2.6074 -2.9492 l0 -8.7695 l2.9297 0 l0 9.1699 c0 3.5547 -2.4316 5.1367 -5.5371 5.1367 z M111.718790625 17.4121 l4.4238 0 l0 2.5879 l-7.3535 0 l0 -14.111 l2.9297 0 l0 11.523 z M129.6240515625 20.19531 c-4.1504 0 -7.2168 -2.832 -7.2168 -7.2559 c0 -4.4336 3.0664 -7.2461 7.2168 -7.2461 c4.1406 0 7.207 2.8125 7.207 7.2461 c0 4.4238 -3.0664 7.2559 -7.207 7.2559 z M129.6240515625 17.5098 c2.4316 0 4.2969 -1.709 4.2969 -4.5703 c0 -2.8516 -1.8652 -4.5508 -4.2969 -4.5508 s-4.2969 1.6992 -4.2969 4.5508 c0 2.8613 1.8652 4.5703 4.2969 4.5703 z M152.7053125 5.888999999999999 l0 2.5781 l-3.3496 0 l0 11.533 l-2.9004 0 l0 -11.533 l-3.3691 0 l0 -2.5781 l9.6191 0 z M160.2099203125 15.498000000000001 l-0.2832 -9.6094 l2.832 0 l-0.2832 9.6094 l-2.2656 0 z M161.3428203125 20.19531 c-0.87891 0 -1.6016 -0.72266 -1.6016 -1.6016 c0 -0.89844 0.72266 -1.6211 1.6016 -1.6211 c0.89844 0 1.6211 0.72266 1.6211 1.6211 c0 0.87891 -0.72266 1.6016 -1.6211 1.6016 z"></path>
  </g>
</svg>