<?xml version="1.0" encoding="UTF-8" standalone="no"?>
<svg
   xmlns="http://www.w3.org/2000/svg"
   viewBox="0 0 194.709 101.63853"
   height="101.63853mm"
   width="194.709mm">
  <g
     transform="translate(-8.8735721,-85.686947)">
    <path
       d="m 31.04574,173.36246 c -18.484266,2.86544 -26.2867069,-2.83212 -20.062826,6.33438 0.494924,0.72893 0.96197,1.51363 1.647856,2.06666 0.502386,0.40507 1.187353,0.51005 1.799881,0.71324 4.165099,1.38165 2.606366,1.13964 6.594504,0.79027 0.806069,-0.37725 1.53138,-1.20659 2.418207,-1.13175 0.799607,0.0675 1.260511,0.99341 1.886833,1.49506 1.1397,0.91282 2.069735,2.17155 3.411191,2.74831 1.750721,0.75273 7.5233,1.08602 9.463375,0.89314 1.726227,-0.17163 3.399946,-0.69111 5.099918,-1.03667 1.232083,-0.49439 2.424856,-1.10105 3.696248,-1.48316 1.376338,-0.41366 2.80435,-0.63366 4.217492,-0.89529 14.026936,-2.59694 -1.77783,2.05982 30.719541,-1.31091 1.690441,-0.17534 2.916644,-1.7459 4.392599,-2.58845 1.182716,-0.67515 2.388311,-1.30942 3.582466,-1.96414 0.717624,-0.47406 1.435248,-0.94813 2.15287,-1.4222 0.109495,-0.12247 0.486264,-0.41319 0.328488,-0.36742 -0.503497,0.14607 -0.944581,0.45515 -1.41668,0.68311 -0.77869,0.37602 -1.596422,0.68026 -2.335691,1.12884 -9.432311,5.72347 14.677938,1.16664 -22.917319,1.89702 0.102076,0.19755 0.128341,0.45923 0.306228,0.59266 0.220372,0.1653 3.855376,1.47348 3.994669,1.50016 0.580215,0.11115 1.181565,0.0213 1.771531,0.052 0.591769,0.0308 1.181846,0.0883 1.772769,0.13241 7.62472,-0.10972 15.24944,-0.21945 22.87416,-0.32917 0.48655,-0.0705 0.96919,-0.17762 1.459651,-0.21164 0.465844,-0.0323 0.936733,0.065 1.400828,0.0133 0.397497,-0.0443 0.765421,-0.24751 1.162091,-0.29872 2.8613,-0.36936 -0.466856,0.4261 2.07566,-0.24879 0.25774,-0.12938 0.48546,-0.40716 0.77322,-0.38813 0.40883,0.027 1.52599,0.48946 1.11695,0.5131 -6.596186,0.38112 -13.210182,0.33945 -19.813441,0.56716 -0.417489,0.0144 0.835334,0.0323 1.251085,0.073 2.011762,0.19684 0.623088,0.30029 2.678049,-0.0656 0.441269,-0.0128 0.882544,-0.0512 1.323813,-0.0383 0.898541,0.0261 1.778876,0.3043 2.677652,0.3205 18.400372,0.33166 16.153772,-0.39608 25.975272,0.59787 0.53102,0.0333 1.06204,0.0666 1.59307,0.1 0.61006,0.16752 1.19968,0.45064 1.8302,0.50256 0.53057,0.0437 1.0493,-0.2218 1.58167,-0.22158 0.59001,2.4e-4 1.16761,0.17835 1.75594,0.22296 0.57235,0.0434 2.29527,0.0569 1.7215,0.0408 -6.74808,-0.19012 -13.49632,-0.37508 -20.24447,-0.56262 0.52336,0.16398 1.03041,0.39425 1.57009,0.49195 0.32761,0.0593 -0.84978,-0.69947 -0.92563,-0.37528 -0.20105,0.85924 1.63911,0.98759 2.5096,0.84282 0.70799,-0.11774 1.34595,-0.55316 2.05988,-0.62685 0.88493,-0.0913 1.77685,0.0928 2.66528,0.13914 0.0181,-0.21816 -0.11846,-0.52001 0.0543,-0.65447 1.15267,-0.89714 3.09332,0.77447 3.70862,1.06965 1.03889,0.49838 2.0504,1.06868 3.13706,1.45186 2.58312,0.91086 3.61524,0.80726 6.28035,0.99261 8.32166,-0.30731 16.64332,-0.61463 24.96498,-0.92193 0.68825,-0.34117 2.82883,-0.94459 2.06473,-1.0235 -7.66793,-0.79181 -15.42737,-0.37907 -23.09759,-1.14842 -0.58865,-0.059 -0.87697,-0.80739 -1.21838,-1.29054 -0.084,-0.11891 -0.1478,-0.43913 -0.002,-0.4368 0.50784,0.008 0.9684,0.30674 1.45261,0.4601 1.37144,0.55085 2.90287,0.21033 4.29592,0.5971 0.95564,0.26532 1.75204,1.08102 2.74085,1.15782 7.84092,0.60892 15.71599,0.64884 23.57694,0.88601 3.7554,0.1133 0.47816,-0.54012 4.04954,0.40416 0.95654,-0.29867 1.98606,0.0694 2.94896,-0.1333 0.37114,-0.0781 0.67891,-0.34333 1.03707,-0.4681 0.29248,-0.10189 0.61963,-0.0892 0.90543,-0.2086 0.25381,-0.10599 0.96225,-0.44738 0.68735,-0.45654 -6.68319,-0.22272 -13.37322,-0.12604 -20.05983,-0.18906 0.60437,-0.0394 2.11419,-1.26069 2.62964,-1.17119 0.13128,0.0228 2.03519,1.46626 2.17726,1.53295 0.4102,0.19256 0.87923,0.21983 1.31885,0.32975 7.56337,0.12327 15.12674,0.24654 22.69011,0.36981 0.45628,-0.047 0.9107,-0.1183 1.36883,-0.14107 0.45892,-0.0228 0.9233,0.0675 1.37845,0.005 0.40317,-0.0558 0.76786,-0.28095 1.16775,-0.35681 2.68281,-0.50893 -0.22057,0.39272 2.19248,-0.43564 0.36009,-0.002 0.72201,-0.0426 1.08029,-0.006 6.16801,0.62338 -12.40677,-0.18547 -18.59778,0.13746 -0.52956,0.0276 0.70763,0.82195 1.17506,1.07235 1.11157,0.59548 1.86873,0.27859 3.01449,0.0994 0.49596,-0.0523 1.00246,-0.0425 1.48787,-0.15691 1.43608,-0.33835 1.28781,-0.7342 2.72935,-0.77809 16.60851,-0.50561 16.54237,3.65336 23.4989,-1.50558 0.76465,-0.49789 0.37654,-0.29483 1.15612,-0.62463 5.49153,-1.4123 -14.48132,-79.07434 -19.97285,-77.66204 v 0 c -0.96368,-0.33259 -0.46952,-0.13053 -1.47536,-0.62334 -7.33017,-3.977693 -6.76647,-0.56947 17.83763,-1.50415 0.39133,-0.0149 -0.77784,-0.1207 -1.14866,-0.24662 -2.44128,-0.82899 0.2376,-0.37535 -2.54112,-0.69152 -1.32475,-0.22798 -1.70514,-0.4717 -3.06553,0.0946 -0.62914,0.2619 -1.06104,1.04253 -1.74196,1.07016 -7.36829,0.29902 -14.74856,-0.0678 -22.12284,-0.10168 -0.38624,0.0794 -0.7664,0.19858 -1.15872,0.23824 -0.38474,0.0389 -0.77341,-0.003 -1.16011,-0.004 -3.23371,-0.89132 0.75084,0.11692 -2.50131,-0.42368 -0.45145,-0.075 -0.87399,-0.29074 -1.32798,-0.34843 -0.43446,-0.0552 -0.87633,0.0331 -1.31381,0.0127 -6.20155,-0.28869 -27.78966,-8.079025 18.62328,0.23624 -1.64542,0.43328 -0.95166,0.10515 -2.45083,1.14877 -0.3154,0.21956 -0.55588,0.6112 -0.9349,0.67461 -0.14005,0.0234 -2.65289,-1.54664 -2.78899,-1.25216 -7.42527,-0.0673 -14.85299,5.3e-4 -22.27581,-0.20198 -0.56147,-0.0153 -1.07186,-0.34614 -1.62388,-0.44984 -0.56278,-0.10572 -1.14424,-0.0805 -1.7088,-0.17623 -0.58573,-0.0993 -1.14418,-0.34553 -1.735,-0.40774 -1.05291,-0.11085 -2.12142,0.1983 -3.17579,0.0502 -0.38015,0.20324 -0.72957,0.47936 -1.14046,0.60971 -0.20291,0.0644 -0.84966,-0.0548 -0.63698,-0.0458 57.1623,2.39793 16.33758,-5.674369 21.33061,1.98395 0.0623,0.0955 0.24745,0.004 0.33247,0.0801 0.0412,0.0368 -0.0894,0.0648 -0.13403,0.0971 -2.5569,0.48542 -3.76844,-1.96328 -6.24898,-2.20617 -8.52033,-0.83428 -17.11897,-0.57824 -25.65141,-1.27788 -0.47144,-0.0387 -1.55635,-0.873041 -1.08514,-0.914451 7.10439,-0.624343 14.25177,-0.57925 21.37766,-0.868873 -0.87172,0.160538 -1.21613,0.09135 -1.89122,0.800542 -0.0922,0.09689 -1.27346,2.062712 -1.60503,2.090962 -1.78383,0.15197 -3.22103,-2.40057 -5.07514,-1.757585 -2.4258,-0.491545 2.33763,0.568935 -2.17535,-1.15352 -2.83862,-1.083407 -2.29257,0.08851 -5.55529,0.0043 -7.09986,-0.183306 -2.16071,-1.253379 -6.28661,-0.144825 -7.78885,-0.187682 -15.57712,-0.400873 -23.36653,-0.563049 -0.57202,-0.01191 -1.14396,0.02722 -1.71594,0.04083 -0.55321,0.07458 -1.10142,0.22312 -1.65964,0.223729 -0.57462,5.29e-4 -1.13727,-0.269505 -1.709764,-0.220046 -0.552802,0.04776 -1.057465,0.336531 -1.586198,0.504799 -0.513853,0.03422 -1.027708,0.06843 -1.541561,0.102645 -9.006874,0.987761 -6.144945,0.06011 17.044753,0.603131 0.90275,0.02114 -1.78792,0.291494 -2.69061,0.314915 -0.41582,0.0108 -0.83138,-0.02999 -1.24706,-0.04499 -0.4104,-0.08402 -0.81249,-0.238879 -1.23119,-0.252063 -0.94079,-0.02963 -1.87319,0.208354 -2.81411,0.23317 -7.468628,0.196958 -14.937739,0.375128 -22.406609,0.562692 -0.384723,0.171607 -0.733594,0.490717 -1.154165,0.514817 -0.42821,0.0245 -0.819931,-0.25215 -1.229897,-0.37822 -4.129924,-0.749065 1.495692,0.18179 -2.547517,-0.202849 -0.416232,-0.0396 -0.809321,-0.227756 -1.225587,-0.267004 -0.378571,-0.0357 -0.760495,0.06923 -1.139905,0.04396 -6.4019,-0.426408 -26.208121,-18.630294 19.241384,-0.514332 -0.341575,0.0372 -0.681649,0.09268 -1.024718,0.111604 -0.337553,0.01863 -0.685832,-0.07952 -1.014196,7.94e-4 -0.408694,0.100076 -0.75924,0.363604 -1.146476,0.528201 -1.440493,0.612296 -2.924109,0.660686 -4.405093,1.179186 -7.558977,0.1204 -15.136484,-0.18129 -22.676929,0.3612 -1.260309,0.0907 -2.298944,1.05188 -3.472556,1.5201 -1.147522,0.4578 -2.324658,0.83757 -3.486968,1.25641 -0.847336,0.30534 -1.66965,0.69191 -2.54196,0.91615 -0.275775,0.0709 -0.842899,0.24116 -0.853123,-0.0434 -0.0159,-0.44231 0.542581,-0.69941 0.813869,-1.04912 0.661043,-0.53734 1.347809,-1.0445 1.983129,-1.61203 0.844248,-0.75416 1.32697,-2.2237 2.451965,-2.349777 7.779277,-0.871784 15.665183,-0.05855 23.477336,-0.55598 0.509609,-0.03245 0.961557,-0.537509 1.149951,-1.012126 0.541774,-1.364869 -1.340038,-3.326789 -1.788874,-3.997548 -0.47557,-0.75385 -0.744517,-1.687909 -1.42671,-2.261555 -0.92287,-0.776025 -5.20546,-2.514626 -6.430733,-2.547805 -1.678548,-0.04546 -3.301833,0.68371 -4.979011,0.765347 -6.060789,0.295005 -4.881425,0.09432 -9.785881,-2.759165 -6.285109,-2.147017 -2.367908,-1.317154 -8.665872,-1.566582 -5.263414,-0.208457 -6.073896,-1.027853 -11.092233,1.038611 -1.490778,0.613876 -2.525749,2.251655 -4.110249,2.549367 -8.604567,1.616718 -17.386053,2.081948 -26.07908,3.122919 -5.7013795,1.463866 15.000805,82.093554 20.702183,80.629684 z"
       id="path881"
       style="fill:#ffff00;fill-rule:evenodd;stroke-width:0.264999" />
  </g>
</svg>
